<svg width="200" height="200" fill="none" xmlns="http://www.w3.org/2000/svg"><path d="M63.226 72.946H51.51a1.208 1.208 0 0 0-1.208 1.201l-.034 23.895a22.394 22.394 0 0 1-22.42 22.361l-16.362-.033a1.203 1.203 0 0 0-1.201 1.201v11.715a1.201 1.201 0 0 0 1.201 1.202h16.368a41.213 41.213 0 0 0 15.571-2.834v-11.111H57.71c4.248-5.914 6.637-13.514 6.677-22.475V74.174a1.195 1.195 0 0 0-1.161-1.228Z" fill="url(#a)"/><path d="M63.225 71.373H51.51a2.383 2.383 0 0 0-2.382 2.376v23.894a21.24 21.24 0 0 1-21.24 21.18H11.52a2.385 2.385 0 0 0-1.708.679 2.387 2.387 0 0 0-.721 1.691v11.715a2.378 2.378 0 0 0 2.37 2.376h16.367a42.486 42.486 0 0 0 15.598-2.781v-2.575a39.424 39.424 0 0 1-15.591 3.053l-16.395-.047.04-11.768h16.368a23.594 23.594 0 0 0 23.603-23.51l.053-23.947h11.715v23.895c0 9.106-2.655 16.918-7.368 22.865h3.02c4.308-6.126 6.717-13.938 6.73-22.865V73.709a2.383 2.383 0 0 0-2.376-2.336Z" fill="#142A51"/><path d="m125.464 54.693 8.456-3.644a15.533 15.533 0 0 1-1.155-3.22c-.823-3.929 1.66-7.426 5.669-8.27 3.624-.756 6.438 1.149 7.102 4.308.776 3.704-1.328 6.319-4.799 7.846l-13.939 6.013a1.188 1.188 0 0 1-1.553-.604l-.385-.85a1.21 1.21 0 0 1-.026-.915 1.211 1.211 0 0 1 .63-.664Zm14.211-6.133c1.619-.744 2.515-2.217 2.21-3.684a2.296 2.296 0 0 0-2.967-1.872 3.14 3.14 0 0 0-2.562 3.916 8.815 8.815 0 0 0 1.102 2.582l2.217-.942Z" fill="#1369B2"/><path d="M58.015 147.059H56.43a.415.415 0 0 0-.385.266l-3.24 8.038-3.484-8.065a.415.415 0 0 0-.378-.245H47.33a.41.41 0 0 0-.293.118.407.407 0 0 0-.119.293v12.551a.418.418 0 0 0 .419.419h1.387a.42.42 0 0 0 .418-.412v-7.235l2.363 5.509a.407.407 0 0 0 .378.246h1.64a.429.429 0 0 0 .385-.266l2.236-5.602v-.046 7.387a.419.419 0 0 0 .412.419h1.447a.413.413 0 0 0 .411-.412v-12.558a.41.41 0 0 0-.398-.405Zm22.813.047H79.32a.396.396 0 0 0-.292.126.384.384 0 0 0-.12.292v7.102a7.424 7.424 0 0 1-.285 2.688 1.59 1.59 0 0 1-.803.796 3.744 3.744 0 0 1-2.814 0 1.751 1.751 0 0 1-.87-.756 4.914 4.914 0 0 1-.292-2.171v-7.679a.411.411 0 0 0-.411-.412h-1.646a.4.4 0 0 0-.292.12.407.407 0 0 0-.12.292v7.898a6.16 6.16 0 0 0 .604 3.173 3.602 3.602 0 0 0 1.872 1.454 7.659 7.659 0 0 0 2.602.438 5.4 5.4 0 0 0 2.595-.564 3.989 3.989 0 0 0 1.633-1.56 6.977 6.977 0 0 0 .564-3.319v-7.533a.413.413 0 0 0-.418-.385Zm21.186.756c-.849-.505-2.13-.744-3.916-.75h-3.451a.42.42 0 0 0-.418.418v12.551a.415.415 0 0 0 .412.418h3.71a6.745 6.745 0 0 0 3.803-.882 5.49 5.49 0 0 0 1.951-2.39 8.766 8.766 0 0 0 .664-3.451 8.544 8.544 0 0 0-.697-3.631 5.035 5.035 0 0 0-2.058-2.283Zm.166 6.033a6.677 6.677 0 0 1-.431 2.556 2.799 2.799 0 0 1-1.175 1.387 4.995 4.995 0 0 1-2.403.451h-1.467v-9.086h1.474a4.891 4.891 0 0 1 2.515.491c.538.363.934.899 1.122 1.52.28.865.41 1.772.385 2.681h-.02Zm21.937-6.478a.425.425 0 0 0-.385-.272h-1.653a.405.405 0 0 0-.378.259l-5.171 12.545a.415.415 0 0 0 .187.523.39.39 0 0 0 .192.047h1.526a.4.4 0 0 0 .229-.072.42.42 0 0 0 .15-.186l1.327-3.2h4.978l1.195 3.193a.41.41 0 0 0 .385.265h1.772a.39.39 0 0 0 .192-.047.394.394 0 0 0 .146-.132.417.417 0 0 0 .047-.385l-4.739-12.538Zm.206 7.58h-3.359l1.746-4.288 1.613 4.288Zm26.582-4.759a5.043 5.043 0 0 0-1.991-2.283 7.963 7.963 0 0 0-3.916-.744h-3.478a.409.409 0 0 0-.411.412v12.558a.416.416 0 0 0 .418.411h3.703a6.801 6.801 0 0 0 3.81-.883 5.483 5.483 0 0 0 1.952-2.389 8.86 8.86 0 0 0 .663-3.452 8.532 8.532 0 0 0-.75-3.63Zm-2.23 1.075a7.82 7.82 0 0 1 .392 2.655 6.536 6.536 0 0 1-.432 2.555 2.774 2.774 0 0 1-1.168 1.388 4.994 4.994 0 0 1-2.402.451h-1.514v-9.087h1.474a4.87 4.87 0 0 1 2.509.492c.545.356.948.891 1.141 1.513v.033Zm29.006-78.142c-6.97-6.093-15.333-8.204-24.499-7.188a31.897 31.897 0 0 0-18.996 8.794c-11.144 10.66-14.35 28.269-7.753 42.214a2.14 2.14 0 0 0 2.27 1.367c5.31-.039 10.62 0 15.93 0 .34.027.682.027 1.022 0a1.114 1.114 0 0 0 .988-.651 1.119 1.119 0 0 0-.145-1.174 8.386 8.386 0 0 0-1.002-1.062c-8.549-9.14-7.069-21.83.664-29.125 6.478-6.126 16.719-5.024 21.983 0a18.674 18.674 0 0 1 5.973 14.423c-.179 8.496-6.876 19.362-19.991 19.395h-29.968c-2.582 0-5.177.126-7.746-.106-8.051-.717-15.578-7.441-17.078-15.386a51.444 51.444 0 0 1-.79-9.153c-.053-6.637.066-13.275.2-19.872.046-2.383-.625-3.63-3.558-3.491-2.476.112-4.965 0-7.454 0h-3.359a2.21 2.21 0 0 0-2.27 2.064 7.76 7.76 0 0 0 0 .876c0 6.432.067 12.87.033 19.301 0 2.622-.073 5.264-.338 7.872a19.541 19.541 0 0 1-10.879 15.817 19.988 19.988 0 0 1-8.31 1.799h-18.81a1.18 1.18 0 0 0-1.188 1.148v14.151a1.18 1.18 0 0 0 1.175 1.182h18.81a49.655 49.655 0 0 0 7.56-.73l.431-.067.379-.06a25.88 25.88 0 0 0 6.471-2.263 36.28 36.28 0 0 0 5.795-3.418 39.206 39.206 0 0 0 6.02-5.423l1.228-1.327c.176.291.369.573.577.843a38.975 38.975 0 0 0 7.965 6.836c5.044 3.365 10.533 5.595 16.64 5.662 13.009.139 26.025.225 39.028.066a34.725 34.725 0 0 0 25.567-11.091c5.894-6.193 9.531-13.593 10.175-22.149.929-12.16-3.717-22.182-12.75-30.074Zm10.553 28.753a30.46 30.46 0 0 1-2.575 10.886 35.23 35.23 0 0 1-10.739 14.356 32.115 32.115 0 0 1-19.913 6.943c-12.378.106-24.757-.04-37.136 0a29.516 29.516 0 0 1-16.454-4.746c-3.664-2.349-7.129-4.938-9.803-8.449-.91-1.195-1.58-1.162-2.53.06a34.765 34.765 0 0 1-9.398 8.462 31.094 31.094 0 0 1-4.175 2.171 33.203 33.203 0 0 1-12.936 2.409H44.946v-11.795h17.629c2.847.005 5.67-.531 8.317-1.579a22.467 22.467 0 0 0 13.035-16.315c.272-1.484.406-2.991.399-4.5.053-7.965.053-15.883.073-23.828 0-.478.04-.956.066-1.527H96.38v1.766c0 7.799 0 15.59.047 23.39-.008 1.85.146 3.698.458 5.522.902 4.978 3.756 8.814 7.513 12.02a20.945 20.945 0 0 0 14.211 5.27c11.788-.086 23.583-.046 35.377 0a21.684 21.684 0 0 0 20.749-13.905c3.318-8.29 1.838-15.93-3.797-22.667-7.142-8.562-20.987-8.21-28.169.445a22.962 22.962 0 0 0-2.31 26.231c.664 1.089 1.328 2.157 2.064 3.438-4.725.12-9.292 0-13.938 0-.432-1.108-.896-2.17-1.274-3.265-4.467-12.81-.857-27.645 8.914-36.679 4.938-4.573 10.852-6.936 17.469-7.706a31.253 31.253 0 0 1 11.45.784 27 27 0 0 1 13.009 7.473c6.783 7.07 10.427 15.426 10.089 25.335h-.007Z" fill="#142A51"/><path d="M137.087 126.967h20.317c6.776 0 12.445-2.582 16.746-7.839 4.865-5.973 7.414-12.816 6.896-20.576-.664-10.135-7.447-19.859-17.748-22.693a43.585 43.585 0 0 0-5.177-.823c-.286-.04-.591 0-.877-.046a1.143 1.143 0 0 1-1.055-1.182 1.053 1.053 0 0 1 1.135-1.075c1.167-.03 2.334.03 3.491.18 8.782 1.373 15.047 6.285 19.249 13.938a25.973 25.973 0 0 1 3.451 13.275c-.259 9.153-3.458 17.137-10.367 23.357a22.703 22.703 0 0 1-15.379 5.88c-11.284.1-22.508 0-33.765 0-2.774 0-5.549 0-8.33-.073a20.685 20.685 0 0 1-10.248-3.04c-8.628-5.124-13.746-12.611-15.193-22.567a38.461 38.461 0 0 1-.186-5.396V79.145c.087-.81.498-1.328 1.096-1.328.597 0 1.154.511 1.22 1.328v1.168c0 6.637-.218 13.354.054 20.018.471 11.33 5.907 19.647 16.036 24.798a17.829 17.829 0 0 0 8.31 1.878c6.777-.066 13.547-.04 20.324-.04Z" fill="#142A51"/><path d="M133.987 106.079c0 .664-.213 1.095-.843 1.241a1.03 1.03 0 0 1-.857-.08 1.033 1.033 0 0 1-.504-.696 38.755 38.755 0 0 1-.664-4.162 1.128 1.128 0 0 1 2.224-.279c.225 1.335.425 2.682.644 3.976Zm.132 2.729c.133.066.505.132.604.338.377.713.654 1.475.823 2.263.047.299-.451.85-.816 1.003a1.216 1.216 0 0 1-1.115-.326 6.833 6.833 0 0 1-.797-2.13c-.119-.684.472-1.182 1.301-1.148Zm18.087-34.847a1.05 1.05 0 0 0-1.327-.796 21.72 21.72 0 0 0-3.372.949c-8.257 3.278-13.275 9.458-15.671 17.86a37.598 37.598 0 0 0-.431 1.687h.079a32.025 32.025 0 0 0-.477 3.172l-.04.439c-.087 1.327.172 1.865.962 1.99.79.127 1.281-.444 1.367-1.811a23.182 23.182 0 0 1 1.162-5.974h-.033a23.893 23.893 0 0 1 11.317-13.905 42.887 42.887 0 0 1 4.865-1.945c.272-.106.577-.126.843-.239a1.144 1.144 0 0 0 .756-1.427Z" fill="#142A51"/><defs><radialGradient id="a" cx="0" cy="0" r="1" gradientUnits="userSpaceOnUse" gradientTransform="rotate(.08 -59659.906 9420.83) scale(63.4999)"><stop stop-color="#4A3F8D"/><stop offset=".13" stop-color="#3F509C"/><stop offset=".38" stop-color="#247DC2"/><stop offset=".51" stop-color="#1497D9"/><stop offset=".6" stop-color="#1A8ED1"/><stop offset=".75" stop-color="#2976BC"/><stop offset=".94" stop-color="#414E9A"/><stop offset="1" stop-color="#4A3F8D"/></radialGradient></defs></svg>